<svg width="27" height="27" viewBox="0 0 27 27" fill="none" xmlns="http://www.w3.org/2000/svg">
<path fill-rule="evenodd" clip-rule="evenodd" d="M13.9598 26.5697C21.1617 26.5697 27 20.7314 27 13.5295C27 6.32762 21.1617 0.489319 13.9598 0.489319C6.75789 0.489319 0.919594 6.32762 0.919594 13.5295C0.919594 20.7314 6.75789 26.5697 13.9598 26.5697ZM14.2544 15.681C13.6227 16.7354 12.4435 17.4064 11.0959 17.4064C8.87434 17.4064 7.26348 15.7236 7.26348 13.5295C7.26348 11.3355 8.87434 9.65273 11.0959 9.65273C12.433 9.65273 13.6122 10.3237 14.2544 11.3781L12.8015 12.2302C12.4751 11.655 11.8434 11.3142 11.0959 11.3142C9.79032 11.3142 8.94804 12.1982 8.94804 13.5295C8.94804 14.8609 9.79032 15.7449 11.0959 15.7449C11.8434 15.7449 12.4856 15.4041 12.8015 14.8289L14.2544 15.681ZM21.361 9.80184L18.9605 17.2573H16.8127L14.4122 9.80184H16.2547L17.8866 15.2869L19.5185 9.80184H21.361Z" fill="#F0F0F0"/>
</svg>
