<svg width="27" height="27" viewBox="0 0 27 27" fill="none" xmlns="http://www.w3.org/2000/svg">
<path fill-rule="evenodd" clip-rule="evenodd" d="M13.3063 26.5697C20.5082 26.5697 26.3465 20.7314 26.3465 13.5295C26.3465 6.32762 20.5082 0.489319 13.3063 0.489319C6.10436 0.489319 0.26606 6.32762 0.26606 13.5295C0.26606 20.7314 6.10436 26.5697 13.3063 26.5697ZM7.31482 13.882C7.31482 10.3802 10.1569 7.53812 13.6587 7.53812C17.1605 7.53812 20.0026 10.3802 20.0026 13.882V14.7892C20.0026 16.0389 19.032 17.0539 17.7822 17.0539C17.0273 17.0539 16.3168 16.686 15.9044 16.1214C15.3335 16.6987 14.5342 17.0539 13.6587 17.0539C11.9078 17.0539 10.4868 15.6329 10.4868 13.882C10.4868 12.1311 11.9078 10.7101 13.6587 10.7101C15.4096 10.7101 16.8306 12.1311 16.8306 13.882V14.7892C16.8306 15.2903 17.2811 15.7852 17.7822 15.7852C18.2834 15.7852 18.7338 15.2903 18.7338 14.7892V13.882C18.7338 11.1288 16.4119 8.8069 13.6587 8.8069C10.9055 8.8069 8.5836 11.1288 8.5836 13.882C8.5836 16.6352 10.9055 18.9571 13.6587 18.9571H16.8306V20.2259H13.6587C10.1569 20.2259 7.31482 17.3838 7.31482 13.882ZM11.7555 13.882C11.7555 14.9351 12.6056 15.7852 13.6587 15.7852C14.7118 15.7852 15.5619 14.9351 15.5619 13.882C15.5619 12.8289 14.7118 11.9788 13.6587 11.9788C12.6056 11.9788 11.7555 12.8289 11.7555 13.882Z" fill="#F0F0F0"/>
</svg>
