<svg width="15" height="15" viewBox="0 0 15 15" fill="none" xmlns="http://www.w3.org/2000/svg">
<path d="M14.3066 6.64131L7.93936 0.275118C7.85218 0.187898 7.74867 0.118708 7.63474 0.0715026C7.52081 0.0242969 7.3987 0 7.27538 0C7.15206 0 7.02994 0.0242969 6.91602 0.0715026C6.80209 0.118708 6.69858 0.187898 6.6114 0.275118L5.28982 1.59666L6.96686 3.27365C7.16464 3.20612 7.37743 3.19556 7.58093 3.24316C7.78443 3.29077 7.97045 3.39462 8.11775 3.54287C8.26506 3.69113 8.36772 3.8778 8.41401 4.0816C8.46031 4.2854 8.44838 4.49811 8.37958 4.69545L9.99555 6.31229C10.2346 6.22811 10.4952 6.22785 10.7345 6.31156C10.9737 6.39527 11.1773 6.55795 11.3118 6.77282C11.4462 6.98769 11.5035 7.24193 11.4741 7.49369C11.4448 7.74544 11.3306 7.9797 11.1503 8.15789C10.9678 8.34149 10.7273 8.45603 10.4697 8.48196C10.2122 8.50789 9.95359 8.4436 9.73817 8.30006C9.52275 8.15653 9.36385 7.94265 9.28861 7.69497C9.21337 7.44729 9.22646 7.18117 9.32564 6.94207L7.81905 5.4346V9.40196C8.04805 9.51532 8.23129 9.70373 8.33821 9.9358C8.44514 10.1679 8.46929 10.4296 8.40665 10.6773C8.34401 10.925 8.19836 11.1438 7.99397 11.2971C7.78959 11.4505 7.53881 11.5292 7.28345 11.5201C7.02809 11.5109 6.78357 11.4146 6.59064 11.247C6.39772 11.0795 6.26804 10.8509 6.22323 10.5993C6.17842 10.3478 6.22119 10.0884 6.3444 9.86459C6.46761 9.64074 6.66382 9.46588 6.90032 9.36915V5.36533C6.76387 5.30942 6.63984 5.22706 6.53537 5.12299C6.4309 5.01891 6.34806 4.89519 6.29164 4.75896C6.23521 4.62272 6.20631 4.47666 6.20659 4.32921C6.20688 4.18175 6.23635 4.0358 6.29331 3.89979L4.64088 2.24649L0.275125 6.61214C0.187902 6.69932 0.118711 6.80283 0.0715044 6.91675C0.0242975 7.03067 0 7.15278 0 7.2761C0 7.39942 0.0242975 7.52153 0.0715044 7.63545C0.118711 7.74938 0.187902 7.85288 0.275125 7.94006L6.64239 14.3072C6.72957 14.3944 6.83308 14.4636 6.94701 14.5108C7.06093 14.558 7.18305 14.5823 7.30637 14.5823C7.42969 14.5823 7.5518 14.558 7.66573 14.5108C7.77965 14.4636 7.88317 14.3944 7.97035 14.3072L14.3075 7.97014C14.4835 7.79396 14.5823 7.55516 14.5823 7.30618C14.5823 7.0572 14.4835 6.8184 14.3075 6.64222" fill="#F0F0F0"/>
</svg>
