<svg width="15" height="15" viewBox="0 0 15 15" fill="none" xmlns="http://www.w3.org/2000/svg">
<path d="M0 3.12477C0 2.29603 0.329216 1.50123 0.915225 0.915225C1.50123 0.329216 2.29603 0 3.12477 0H11.4575C12.2862 0 13.081 0.329216 13.6671 0.915225C14.2531 1.50123 14.5823 2.29603 14.5823 3.12477V11.4575C14.5823 12.2862 14.2531 13.081 13.6671 13.6671C13.081 14.2531 12.2862 14.5823 11.4575 14.5823H3.12477C2.29603 14.5823 1.50123 14.2531 0.915225 13.6671C0.329216 13.081 0 12.2862 0 11.4575V3.12477ZM7.55154 4.68716C7.34435 4.68716 7.14565 4.76946 6.99915 4.91597C6.85265 5.06247 6.77034 5.26117 6.77034 5.46835V10.6763C6.77034 10.7454 6.74291 10.8116 6.69407 10.8604C6.64524 10.9093 6.57901 10.9367 6.50995 10.9367H5.46835C5.26117 10.9367 5.06247 11.019 4.91597 11.1655C4.76946 11.312 4.68716 11.5107 4.68716 11.7179C4.68716 11.9251 4.76946 12.1238 4.91597 12.2703C5.06247 12.4168 5.26117 12.4991 5.46835 12.4991H6.50995C6.99338 12.4991 7.45701 12.3071 7.79885 11.9652C8.14069 11.6234 8.33273 11.1597 8.33273 10.6763V5.46835C8.33273 5.26117 8.25043 5.06247 8.10392 4.91597C7.95742 4.76946 7.75872 4.68716 7.55154 4.68716ZM8.85353 6.50995V7.55154C8.85353 8.55771 9.67013 9.37432 10.6763 9.37432H11.1971C11.2662 9.37432 11.3324 9.40176 11.3812 9.45059C11.4301 9.49942 11.4575 9.56566 11.4575 9.63472V10.6763C11.4575 10.7454 11.4301 10.8116 11.3812 10.8604C11.3324 10.9093 11.2662 10.9367 11.1971 10.9367H9.63472C9.42753 10.9367 9.22884 11.019 9.08233 11.1655C8.93583 11.312 8.85353 11.5107 8.85353 11.7179C8.85353 11.9251 8.93583 12.1238 9.08233 12.2703C9.22884 12.4168 9.42753 12.4991 9.63472 12.4991H11.1971C11.6805 12.4991 12.1442 12.3071 12.486 11.9652C12.8278 11.6234 13.0199 11.1597 13.0199 10.6763V9.63472C13.0199 9.15129 12.8278 8.68765 12.486 8.34582C12.1442 8.00398 11.6805 7.81193 11.1971 7.81193H10.6763C10.6072 7.81193 10.541 7.7845 10.4922 7.73567C10.4433 7.68683 10.4159 7.6206 10.4159 7.55154V6.50995C10.4159 6.44088 10.4433 6.37465 10.4922 6.32582C10.541 6.27698 10.6072 6.24955 10.6763 6.24955H12.2387C12.4459 6.24955 12.6446 6.16724 12.7911 6.02074C12.9376 5.87424 13.0199 5.67554 13.0199 5.46835C13.0199 5.26117 12.9376 5.06247 12.7911 4.91597C12.6446 4.76946 12.4459 4.68716 12.2387 4.68716H10.6763C10.1929 4.68716 9.72925 4.8792 9.38741 5.22104C9.04557 5.56288 8.85353 6.02651 8.85353 6.50995Z" fill="#F0F0F0"/>
</svg>
