<svg width="15" height="18" viewBox="0 0 15 18" fill="none" xmlns="http://www.w3.org/2000/svg">
<path d="M7.66392 0C7.54885 0 7.43102 0.00605614 7.30932 0.0148651C4.19207 0.260965 5.0191 3.54449 4.97263 4.63955C4.9151 5.43952 4.75135 6.07321 4.19816 6.85665C3.54373 7.62799 2.62764 8.87555 2.19283 10.1738C1.9887 10.7843 1.89023 11.4131 1.98261 12.0038C1.94782 12.0295 1.91927 12.0626 1.89908 12.1007C1.70878 12.2989 1.56716 12.5428 1.41171 12.7173C1.26512 12.8632 1.0549 12.9128 0.823669 13.0102C0.59354 13.1099 0.336858 13.2079 0.186942 13.5118C0.120559 13.65 0.085708 13.7986 0.0890271 13.9539C0.0890271 14.097 0.109495 14.2462 0.12941 14.3464C0.173113 14.6388 0.215709 14.8799 0.158176 15.0578C-0.0260373 15.556 -0.0459524 15.8974 0.0807292 16.1473C0.209623 16.394 0.475157 16.4914 0.771669 16.5894C1.37133 16.7353 2.18066 16.6891 2.8207 17.0277C3.50279 17.3718 4.1976 17.521 4.7508 17.3751C4.94161 17.3325 5.1205 17.2481 5.27446 17.1281C5.42843 17.0081 5.5536 16.8555 5.64089 16.6814C6.07293 16.6786 6.54812 16.4832 7.30655 16.4347C7.82213 16.3912 8.46771 16.6324 9.20788 16.5806C9.2278 16.6814 9.2538 16.7265 9.29418 16.8273V16.83C9.58184 17.4004 10.1151 17.6586 10.686 17.6157C11.253 17.57 11.8582 17.2231 12.3478 16.6555C12.8147 16.0961 13.5897 15.8605 14.1025 15.5544C14.3592 15.4074 14.5667 15.2103 14.5811 14.9262C14.5982 14.6338 14.4345 14.3299 14.0566 13.917V13.8449L14.0539 13.8421C13.9272 13.6962 13.8697 13.4496 13.8033 13.1633C13.7397 12.8676 13.6705 12.5869 13.4404 12.3947C13.3939 12.3545 13.348 12.3457 13.2993 12.2973C13.2584 12.2686 13.2104 12.2518 13.1605 12.2488C13.4774 11.3107 13.3535 10.3791 13.0305 9.53842C12.6388 8.50337 11.9501 7.60046 11.4284 6.98108C10.8404 6.24388 10.2645 5.54467 10.2761 4.50962C10.296 2.92897 10.4515 0.00770782 7.66281 0.00165167L7.66392 0ZM8.05281 2.50009H8.06443C8.21988 2.50009 8.35486 2.54633 8.49371 2.64378C8.63478 2.74343 8.73878 2.88768 8.81622 3.03633C8.89422 3.22572 8.93516 3.37162 8.94014 3.56652C8.94014 3.55275 8.9429 3.53789 8.9429 3.52412V3.6012C8.9429 3.59515 8.94014 3.59019 8.94014 3.58413L8.93737 3.56652C8.93737 3.7449 8.90031 3.92273 8.82839 4.08569C8.79422 4.17847 8.74002 4.26266 8.66963 4.33234C8.64971 4.32133 8.62924 4.30977 8.60601 4.30096C8.52856 4.26628 8.45941 4.25527 8.3958 4.20406C8.34345 4.18319 8.28941 4.1668 8.23426 4.15506C8.26911 4.11267 8.34103 4.05761 8.36979 4.00917C8.40741 3.91722 8.42733 3.81702 8.43341 3.71407V3.6992C8.43498 3.59981 8.41926 3.50091 8.38694 3.40686C8.35541 3.30941 8.31558 3.25986 8.25473 3.16296C8.19111 3.11396 8.13081 3.06551 8.05558 3.06551H8.04452C7.97537 3.06551 7.91452 3.08533 7.85145 3.16296C7.78224 3.23087 7.73077 3.3146 7.70154 3.40686C7.66135 3.49935 7.63884 3.59849 7.63515 3.6992V3.71407C7.63515 3.77958 7.64124 3.84565 7.64898 3.91172C7.50515 3.86327 7.32647 3.81096 7.19979 3.76252C7.1929 3.71417 7.18902 3.66544 7.18817 3.61662V3.60175C7.18257 3.40786 7.22017 3.21515 7.29826 3.03743C7.35856 2.87667 7.46809 2.73848 7.61524 2.64708C7.74137 2.55294 7.89405 2.50119 8.05281 2.50119V2.50009ZM5.8688 2.54358H5.8948C5.9988 2.54358 6.09395 2.57826 6.1891 2.64103C6.29808 2.73572 6.38549 2.85299 6.44302 2.98182C6.5094 3.12882 6.54647 3.27747 6.55808 3.47237V3.47512C6.56085 3.57257 6.56085 3.62488 6.55532 3.67057V3.73058L6.49502 3.74765C6.38272 3.78784 6.29366 3.8451 6.20349 3.89465C6.21234 3.82858 6.21234 3.76252 6.20625 3.6992V3.68764C6.19795 3.59074 6.17749 3.54174 6.14595 3.44374C6.12234 3.36838 6.07967 3.30033 6.02204 3.24609C5.98581 3.21394 5.9383 3.19732 5.88982 3.19984H5.87212C5.82067 3.2026 5.77697 3.22847 5.73714 3.29729C5.68838 3.35312 5.65738 3.4221 5.64808 3.49549C5.62761 3.57257 5.62152 3.65571 5.63038 3.73939V3.74765C5.63923 3.8484 5.65638 3.8974 5.69067 3.9943C5.71293 4.06899 5.75474 4.13644 5.81182 4.18975C5.82067 4.19856 5.82676 4.20461 5.83782 4.20682C5.78638 4.25031 5.75153 4.25912 5.70893 4.30757C5.67961 4.32794 5.64863 4.35382 5.61101 4.35987C5.53429 4.26803 5.46667 4.16902 5.4091 4.06422C5.33852 3.90989 5.29941 3.74316 5.29403 3.57367C5.28286 3.40803 5.30237 3.24176 5.35157 3.08313C5.39527 2.93998 5.46442 2.80509 5.56178 2.69058C5.65693 2.59313 5.75208 2.54468 5.86991 2.54468L5.8688 2.54358ZM6.88004 3.79665C7.12511 3.79665 7.41941 3.84235 7.77622 4.089C7.99252 4.236 8.1629 4.2872 8.55456 4.43034C8.74486 4.5311 8.85384 4.62854 8.90861 4.72599V4.62854C8.93488 4.68172 8.9495 4.73985 8.9515 4.79908C8.9535 4.8583 8.94284 4.91727 8.92022 4.97209C8.82784 5.20167 8.53963 5.44557 8.13413 5.59147V5.59422C7.93775 5.69167 7.76515 5.83812 7.56324 5.93557C7.35911 6.03302 7.12787 6.15084 6.81698 6.13102C6.70439 6.13593 6.5919 6.1193 6.48561 6.08202C6.40367 6.03872 6.32475 5.98998 6.2494 5.93612C6.10557 5.83867 5.98165 5.69222 5.79744 5.59477V5.59202H5.79467C5.49761 5.41144 5.3394 5.21599 5.2874 5.07009C5.23871 4.87244 5.28463 4.72654 5.43178 4.62909C5.59552 4.53165 5.71059 4.43089 5.78582 4.38244C5.86327 4.32794 5.89259 4.30757 5.91582 4.28775H5.91859V4.285C6.04251 4.13579 6.23778 3.9409 6.53817 3.8429C6.6383 3.81702 6.75447 3.7972 6.8806 3.7972L6.88004 3.79665ZM8.9429 5.36739C9.20844 6.4085 9.82802 7.91978 10.2258 8.65092C10.436 9.04347 10.8564 9.86931 11.0379 10.8708C11.1529 10.868 11.2796 10.8845 11.4157 10.9192C11.8936 9.69203 11.0152 8.37289 10.6147 8.00567C10.4504 7.85977 10.4421 7.76177 10.5223 7.76177C10.9576 8.15157 11.5274 8.91519 11.7349 9.78342C11.83 10.176 11.8538 10.5955 11.7526 11.0106C11.8013 11.0304 11.8505 11.0563 11.9025 11.0591C12.6631 11.4527 12.9453 11.7478 12.8097 12.1888V12.1574C12.7671 12.1552 12.7207 12.1574 12.6775 12.1574H12.6659C12.7788 11.8139 12.5309 11.5496 11.8798 11.2573C11.2055 10.9649 10.6667 11.0106 10.5743 11.5986C10.5678 11.6318 10.5641 11.6655 10.5632 11.6994C10.5107 11.7164 10.4592 11.7363 10.4078 11.7451C10.0908 11.9433 9.9204 12.2384 9.82304 12.6171C9.72789 13.0097 9.69912 13.4656 9.67312 13.9908C9.65542 14.2374 9.54644 14.6069 9.43635 14.9823C8.32996 15.7707 6.7943 16.1121 5.49263 15.229C5.40854 15.0858 5.31063 14.9537 5.19557 14.8364C5.14032 14.7453 5.07149 14.6631 4.99144 14.5925C5.12642 14.5925 5.24203 14.57 5.33442 14.5435C5.43993 14.493 5.52289 14.4053 5.56731 14.2974C5.64531 14.102 5.56731 13.7865 5.31063 13.4424C5.05782 13.1016 4.62522 12.714 3.99403 12.3276C3.52768 12.0352 3.26547 11.6884 3.14432 11.3035C3.02317 10.911 3.04032 10.5063 3.1327 10.0967C3.31415 9.31104 3.77828 8.54577 4.07535 8.06623C4.15279 8.02053 4.10135 8.16698 3.77275 8.78361C3.48122 9.33417 2.93134 10.6159 3.68258 11.6107C3.71145 10.8841 3.87363 10.1689 4.16109 9.50043C4.57543 8.56283 5.44616 6.92878 5.51531 5.63276C5.55016 5.66139 5.67408 5.73351 5.72829 5.78196C5.88706 5.87941 6.00765 6.02586 6.16366 6.12331C6.3191 6.26921 6.51493 6.36996 6.80923 6.36996C6.838 6.37271 6.864 6.37271 6.88945 6.37271C7.19204 6.37271 7.42881 6.27526 7.62409 6.17726C7.83707 6.07651 8.01077 5.93061 8.1712 5.88216H8.17396C8.51694 5.78472 8.79078 5.58652 8.94346 5.36849L8.9429 5.36739ZM10.5566 11.9433C10.5853 12.3843 10.8105 12.8577 11.2077 12.9546C11.6397 13.0521 12.2648 12.7107 12.5271 12.3931L12.6825 12.387C12.9154 12.381 13.109 12.3931 13.3071 12.5825L13.3098 12.5852C13.4625 12.7311 13.535 12.975 13.598 13.2277C13.6617 13.5228 13.7103 13.8008 13.9006 14.0101C14.2574 14.3971 14.3758 14.6751 14.3703 14.8475C14.3587 15.0391 14.2314 15.1365 14.0013 15.2829C13.5372 15.5786 12.7135 15.8049 12.189 16.4364C11.7332 16.9781 11.1778 17.2732 10.6871 17.3107C10.1975 17.3508 9.7738 17.1648 9.52597 16.6516L9.52321 16.6489C9.36776 16.356 9.43414 15.8974 9.56359 15.4096C9.69359 14.919 9.88057 14.4208 9.90657 14.0161C9.93257 13.4914 9.96134 13.0356 10.0476 12.6821C10.1367 12.3408 10.2755 12.0969 10.5234 11.9625L10.5549 11.9449L10.5566 11.9433ZM2.5784 11.9801H2.58725C2.62764 11.9801 2.66525 11.9829 2.70232 11.9917C2.97892 12.0319 3.22398 12.2356 3.45743 12.5423L4.12845 13.764L4.13122 13.7667C4.3099 14.1565 4.68718 14.5463 5.00693 14.9686C5.32723 15.4068 5.57506 15.7994 5.54629 16.1209V16.127C5.50259 16.6715 5.19169 16.9666 4.7165 17.0761C4.24075 17.1736 3.59517 17.0761 2.95015 16.7348C2.23598 16.3422 1.38572 16.3907 0.841372 16.2927C0.57086 16.2442 0.392178 16.1435 0.308092 15.9976C0.227879 15.8517 0.22456 15.5555 0.400476 15.0941V15.0919C0.486774 14.8453 0.424263 14.5386 0.380561 14.2688C0.340177 13.9759 0.320262 13.7491 0.412093 13.5801C0.529923 13.3334 0.705839 13.2877 0.921585 13.1875C1.13788 13.0901 1.39457 13.0416 1.59593 12.8434H1.59869V12.8407C1.78623 12.6463 1.92785 12.4024 2.09159 12.2268C2.23044 12.0776 2.37095 11.9801 2.5784 11.9801ZM7.8603 5.31894C7.54 5.46484 7.16272 5.71149 6.76221 5.71149C6.3617 5.71149 6.04748 5.51714 5.82012 5.37015C5.70506 5.27049 5.61267 5.1725 5.54352 5.1235C5.42237 5.0266 5.43676 4.8774 5.48876 4.8774C5.56897 4.88841 5.58391 4.97705 5.63535 5.0266C5.70782 5.07505 5.79412 5.1725 5.90033 5.27049C6.11663 5.41639 6.40485 5.61404 6.76166 5.61404C7.11958 5.61404 7.54 5.41639 7.79337 5.27049C7.9372 5.17305 8.12141 5.0266 8.27133 4.92915C8.38639 4.8284 8.38141 4.73095 8.47546 4.73095C8.5706 4.74251 8.50201 4.8284 8.36924 4.97485C8.23371 5.0756 8.02626 5.2215 7.85975 5.31894H7.8603ZM7.06204 4.15506V4.1413C7.05928 4.12643 7.07034 4.10992 7.08472 4.10386C7.13617 4.07248 7.21694 4.08349 7.27502 4.10661C7.32094 4.10661 7.39285 4.15506 7.38732 4.20627C7.38124 4.24095 7.3237 4.25527 7.28609 4.25527C7.24626 4.25527 7.21694 4.22388 7.18264 4.20406C7.14502 4.1925 7.07255 4.19801 7.06149 4.15506H7.06204ZM6.65545 4.15506C6.64051 4.19856 6.57136 4.1925 6.5343 4.20406C6.49944 4.22388 6.47068 4.25527 6.4303 4.25527C6.39268 4.25527 6.33238 4.2404 6.32906 4.20406C6.32408 4.15506 6.39268 4.10661 6.43915 4.10661C6.49944 4.08294 6.57413 4.07193 6.63166 4.10386C6.64327 4.10992 6.65821 4.12643 6.65213 4.1413V4.15506H6.65545Z" fill="#F0F0F0"/>
</svg>
