<svg width="15" height="16" viewBox="0 0 15 16" fill="none" xmlns="http://www.w3.org/2000/svg">
<path d="M6.35187 8.17604V8.09347C6.39692 7.98086 6.44196 7.87576 6.49451 7.77066C6.91 6.89255 6.97968 5.8902 6.68969 4.96304C6.67454 4.83062 6.61879 4.70614 6.53008 4.60668C6.44137 4.50722 6.32405 4.43765 6.19423 4.40752C5.63574 4.36864 5.0818 4.53109 4.63277 4.86544V5.00057C4.68208 5.60352 4.66698 6.21001 4.58772 6.80976C4.54513 7.07896 4.56494 7.35434 4.64564 7.61466C4.72634 7.87497 4.86576 8.11328 5.05316 8.31117C5.19119 8.45802 5.35738 8.57557 5.54181 8.65682C5.72624 8.73808 5.92514 8.78136 6.12666 8.78411C6.1908 8.57754 6.26598 8.37456 6.35187 8.17604ZM5.79635 4.94051C5.75418 4.89273 5.73025 4.83157 5.72879 4.76785C5.73335 4.74904 5.74169 4.73135 5.75331 4.71586C5.76492 4.70037 5.77957 4.68741 5.79635 4.67777C5.90715 4.62026 6.03409 4.60175 6.15669 4.62522C6.34437 4.62522 6.53204 4.74533 6.51703 4.88046C6.48901 4.95482 6.43854 5.01862 6.37263 5.06301C6.30672 5.1074 6.22863 5.13018 6.14918 5.12819H6.10414C5.98079 5.10872 5.87015 5.04125 5.79635 4.94051Z" fill="#F0F0F0"/>
<path d="M4.20481 6.75722C4.27253 6.18426 4.28761 5.60631 4.24985 5.0306V4.82041C4.22026 3.58112 4.62975 2.37127 5.40593 1.40471C4.65523 1.16448 2.85354 0.654006 1.75001 1.47978C1.07438 1.96023 0.759082 2.86107 0.826646 4.14477C0.976194 5.26629 1.22746 6.37188 1.57735 7.44786C2.08783 9.11442 2.66587 10.1654 3.16133 10.3381C3.2364 10.3381 3.46912 10.4357 3.80693 10.0303C4.28738 9.45975 4.7303 8.97179 4.93299 8.75409L4.79035 8.61145C4.55523 8.36924 4.37986 8.07551 4.27821 7.75361C4.17656 7.43171 4.15143 7.09054 4.20481 6.75722ZM6.83227 9.30961C6.71215 9.26456 6.6521 9.23454 6.51697 9.39218C6.43664 9.47303 6.36377 9.56097 6.29927 9.65493C6.03652 9.97773 5.92391 10.0903 5.16571 10.248C5.06302 10.265 4.96239 10.2927 4.86542 10.3306C4.9489 10.389 5.0434 10.4299 5.14318 10.4507C5.47912 10.5643 5.84262 10.5673 6.18038 10.4592C6.51814 10.3511 6.81238 10.1377 7.01994 9.85011C7.03933 9.80903 7.04939 9.76417 7.04939 9.71874C7.04939 9.67331 7.03933 9.62845 7.01994 9.58737C6.99619 9.47377 6.9288 9.37403 6.83227 9.30961ZM11.5542 4.94052C11.589 4.74462 11.6091 4.54637 11.6142 4.34746C11.1188 4.28741 10.5482 4.29491 10.323 4.61771C9.88762 5.2408 10.7434 6.77974 11.0737 7.43285C11.1463 7.54875 11.2115 7.6691 11.2689 7.79319C11.2989 7.8742 11.3366 7.95213 11.3815 8.02591C11.577 7.51611 11.6188 6.96019 11.5016 6.42691C11.4657 6.16571 11.4481 5.90232 11.4491 5.63867C11.4658 5.40356 11.5009 5.17013 11.5542 4.94052ZM11.1338 4.82041C11.0688 4.88669 10.9849 4.93126 10.8936 4.94802H10.8485C10.7771 4.9483 10.7074 4.92692 10.6484 4.88671C10.5894 4.84651 10.544 4.78936 10.5182 4.72281C10.5182 4.61772 10.6684 4.54265 10.8485 4.51262C11.0287 4.48259 11.2089 4.51262 11.2239 4.62522C11.2204 4.69954 11.1881 4.76958 11.1338 4.82041Z" fill="#F0F0F0"/>
<path d="M11.0513 2.16292C11.5458 2.71286 11.8988 3.37508 12.0797 4.09222C12.0837 4.12965 12.0837 4.1674 12.0797 4.20483C12.0822 4.47161 12.0596 4.73803 12.0122 5.00057C11.9766 5.2142 11.954 5.4298 11.9446 5.64618C11.9431 5.89738 11.9607 6.14834 11.9972 6.39688C12.1488 7.08571 12.0531 7.80593 11.7269 8.43128L11.7794 8.49134C13.446 5.87139 14.0316 2.83104 13.4986 2.16292C13.1571 1.73368 12.7217 1.38862 12.2258 1.15433C11.7299 0.920046 11.1868 0.802805 10.6384 0.811652C10.2273 0.805915 9.81686 0.846203 9.41473 0.931765C10.0453 1.2149 10.6044 1.63557 11.0513 2.16292Z" fill="#F0F0F0"/>
<path d="M14.542 9.00933C14.4895 8.85919 14.2642 8.37123 13.4385 8.54389C13.1913 8.59649 12.9402 8.62913 12.6878 8.64148C13.3655 7.49536 13.8857 6.26313 14.2342 4.97805C14.512 3.88953 14.7297 2.43317 14.1516 1.68998C13.7271 1.15142 13.1835 0.718609 12.5634 0.425539C11.9434 0.132469 11.2639 -0.0128833 10.5783 0.000895769C9.95313 -0.00311235 9.33081 0.0854288 8.73157 0.263642C8.372 0.200444 8.00806 0.165305 7.64305 0.158543C6.99687 0.145263 6.35901 0.306023 5.79632 0.623979C5.36225 0.48093 4.9181 0.37052 4.46758 0.29367C3.93228 0.157189 3.37487 0.13073 2.82905 0.215892C2.28324 0.301055 1.76038 0.496068 1.2921 0.789133C0.361234 1.44224 -0.0666669 2.58331 0.00840339 4.18231C0.151715 5.37126 0.402986 6.5447 0.759106 7.68809C0.970916 8.40346 1.24992 9.0972 1.59239 9.76003C1.83642 10.3705 2.3072 10.8628 2.90612 11.1338C3.12318 11.2045 3.35517 11.216 3.57818 11.1672C3.80118 11.1184 4.00713 11.011 4.1748 10.8561C4.37573 11.0747 4.63698 11.2288 4.92551 11.299C5.50902 11.4597 6.12935 11.4228 6.68966 11.1939V11.8019C6.68335 12.4005 6.7617 12.997 6.92237 13.5736C6.92449 13.6061 6.92449 13.6387 6.92237 13.6712C7.02247 14.0199 7.20533 14.3392 7.45537 14.6021C7.75773 14.885 8.16008 15.0362 8.57392 15.0225C8.75083 15.0231 8.92721 15.003 9.09941 14.9624C9.42569 14.9226 9.74067 14.8178 10.0257 14.654C10.3106 14.4902 10.5598 14.2709 10.7585 14.009C11.2669 13.0933 11.5039 12.0517 11.4416 11.0062V10.811H11.5692C12.185 10.8537 12.8022 10.7508 13.3709 10.5107C13.7087 10.3381 14.8047 9.76003 14.542 9.00933ZM13.1832 10.1129C12.7539 10.2857 12.2948 10.3725 11.832 10.3681C11.6316 10.3734 11.4316 10.3481 11.2389 10.293C11.1638 10.9987 10.9987 12.3124 10.9011 12.8604C10.8723 13.3026 10.6861 13.7198 10.3763 14.0365C10.0664 14.3532 9.65341 14.5485 9.21202 14.587C9.0491 14.6215 8.88307 14.6391 8.71655 14.6396C8.38971 14.632 8.07428 14.5179 7.8182 14.3146C7.56212 14.1114 7.37937 13.8301 7.29772 13.5135C7.10419 12.5099 7.0336 11.4864 7.08753 10.4657C6.72207 10.796 6.24373 10.9734 5.75128 10.9612C5.51298 10.9572 5.27605 10.9244 5.04562 10.8636C4.97805 10.8636 4.39251 10.6909 4.40001 10.3155C4.40752 9.9402 4.89548 9.87263 5.07565 9.8351C5.72125 9.69997 5.76629 9.64742 5.96898 9.39218C6.01319 9.32956 6.06081 9.26942 6.11162 9.21202C5.82037 9.2011 5.53543 9.12409 5.27834 8.9868C5.10567 9.17448 4.63273 9.68496 4.12225 10.293C4.02947 10.431 3.90591 10.5455 3.7613 10.6276C3.6167 10.7097 3.45501 10.7571 3.28897 10.766C3.20184 10.7785 3.11336 10.7785 3.02623 10.766C2.36561 10.5107 1.74253 9.42221 1.17199 7.50792C0.817771 6.39984 0.566473 5.26146 0.42129 4.10724C0.346219 2.66589 0.721571 1.64493 1.52482 1.10443C2.96617 0.0834731 5.27834 0.871711 5.80383 1.05939C6.33851 0.705274 6.97252 0.531644 7.61302 0.563923C7.96766 0.564295 8.32081 0.6097 8.664 0.699049C9.26809 0.493467 9.90269 0.391931 10.5408 0.398768C11.1605 0.381727 11.7758 0.508408 12.3385 0.768888C12.9011 1.02937 13.3958 1.41657 13.7838 1.90017C14.3018 2.56079 13.9565 4.15228 13.7838 4.82041C13.3986 6.26109 12.788 7.63179 11.9746 8.88171C12.0947 8.96428 12.4626 9.11442 13.476 8.88171C13.8213 8.80664 14.024 8.88171 14.0916 9.06938C14.2567 9.48227 13.5661 9.91768 13.1832 10.0978V10.1129Z" fill="#F0F0F0"/>
<path d="M11.3741 8.70154C11.1828 8.47561 11.0259 8.22264 10.9086 7.95083C10.9086 7.89828 10.8185 7.77066 10.736 7.62803C10.3006 6.87733 9.39221 5.21077 9.98526 4.36998C10.1849 4.15768 10.4381 4.00311 10.7181 3.92253C10.9982 3.84194 11.2948 3.83832 11.5768 3.91205C11.3838 3.37959 11.0964 2.88625 10.7285 2.45569C10.3533 1.9935 9.8811 1.61944 9.34533 1.35998C8.80956 1.10053 8.2233 0.962028 7.62806 0.954285C7.27679 0.932144 6.9248 0.984203 6.59499 1.10708C6.26517 1.22995 5.96492 1.42088 5.71377 1.66745C5.07459 2.42044 4.70942 3.36778 4.6778 4.35497L4.7904 4.29491C5.10251 4.12656 5.44398 4.01954 5.79634 3.97962C5.94216 3.94584 6.09338 3.9425 6.24055 3.96981C6.38771 3.99712 6.52767 4.05448 6.65166 4.13832C6.77566 4.22216 6.88103 4.33067 6.9612 4.45707C7.04136 4.58347 7.0946 4.72505 7.11758 4.87295C7.42621 5.88823 7.34868 6.98176 6.89987 7.94333C6.85106 8.03806 6.80843 8.13586 6.77226 8.2361V8.31868C6.69719 8.52137 6.62962 8.70904 6.58458 8.86669C6.7292 8.83914 6.87882 8.85752 7.01248 8.91924C7.1254 8.97298 7.22542 9.05042 7.30573 9.14628C7.38605 9.24214 7.44477 9.35417 7.47792 9.47476V9.59487C7.48156 9.61725 7.48156 9.64006 7.47792 9.66244C7.39705 10.8909 7.45244 12.1246 7.64307 13.3409C7.67688 13.4998 7.74465 13.6494 7.84175 13.7797C7.93885 13.9099 8.06297 14.0175 8.2056 14.0953C8.34823 14.173 8.50599 14.219 8.66805 14.23C8.83011 14.241 8.99263 14.2168 9.14448 14.1591C9.50193 14.135 9.8376 13.9787 10.086 13.7205C10.3345 13.4624 10.4778 13.121 10.4882 12.7628C10.6008 12.1022 10.826 10.248 10.8561 9.85011C10.8561 9.05437 11.2464 8.89672 11.4867 8.82916L11.3741 8.70154Z" fill="#F0F0F0"/>
<path d="M11.8019 9.25706L11.7419 9.21202H11.6518C11.4566 9.26457 11.2764 9.31711 11.299 9.81258C11.5205 9.90046 11.7605 9.93143 11.9971 9.90266C12.3521 9.88773 12.7021 9.81417 13.0331 9.68496C13.2502 9.58701 13.4503 9.45525 13.6261 9.29459C13.0334 9.50241 12.3856 9.48908 11.8019 9.25706Z" fill="#F0F0F0"/>
</svg>
