<svg width="15" height="15" viewBox="0 0 15 15" fill="none" xmlns="http://www.w3.org/2000/svg">
<path d="M7.23889 0C3.5362 0 3.76709 1.61377 3.76709 1.61377L3.77134 3.28587H7.3039V3.78775H2.36962C2.36962 3.78775 0 3.51737 0 7.2723C0 11.0272 2.06765 10.8936 2.06765 10.8936H3.30106V9.1516C3.30106 9.1516 3.23484 7.07362 5.33651 7.07362H8.8399C8.8399 7.07362 10.8085 7.10522 10.8085 5.16091V1.94552C10.8085 1.94552 11.1068 0 7.23828 0H7.23889ZM5.29094 1.12405C5.64213 1.12405 5.92648 1.40962 5.92648 1.76324C5.92648 2.11625 5.64213 2.40182 5.29094 2.40182C4.93914 2.40182 4.65539 2.11625 4.65539 1.76324C4.65539 1.40962 4.93914 1.12405 5.29094 1.12405Z" fill="#F0F0F0"/>
<path d="M7.34402 14.5823C11.0455 14.5823 10.8146 12.9685 10.8146 12.9685L10.8103 11.2964H7.27779V10.7945H12.2133C12.2133 10.7945 14.5829 11.0649 14.5829 7.30997C14.5829 3.55504 12.5147 3.68871 12.5147 3.68871H11.2812V5.43068C11.2812 5.43068 11.3475 7.50866 9.24579 7.50866H5.74301C5.74301 7.50866 3.7744 7.47706 3.7744 9.42137V12.6368C3.7744 12.6368 3.47546 14.5823 7.34402 14.5823ZM9.29197 13.4582C8.94017 13.4582 8.65642 13.1727 8.65642 12.819C8.65642 12.466 8.94017 12.1805 9.29197 12.1805C9.64316 12.1805 9.92751 12.466 9.92751 12.819C9.92751 13.1727 9.64316 13.4582 9.29197 13.4582Z" fill="#F0F0F0"/>
</svg>
