<svg width="15" height="13" viewBox="0 0 15 13" fill="none" xmlns="http://www.w3.org/2000/svg">
<path d="M14.5823 6.49459C14.5823 5.52851 13.3726 4.61287 11.5176 4.04537C11.9459 2.15514 11.7558 0.650735 10.9173 0.168912C10.7141 0.0551213 10.4842 -0.00215568 10.2514 0.00303797V0.665317C10.3881 0.665317 10.498 0.692659 10.5904 0.743089C10.9944 0.975191 11.17 1.85742 11.0333 2.99302C11.0005 3.27251 10.947 3.56659 10.8814 3.86674C10.2602 3.71705 9.62979 3.60886 8.99424 3.54289C8.61562 3.02053 8.20255 2.52404 7.75778 2.05671C8.7269 1.15625 9.63647 0.662887 10.255 0.662887V0C9.43717 0 8.3672 0.582684 7.28507 1.59312C6.20355 0.589368 5.13297 0.0121519 4.31575 0.0121519V0.674431C4.93125 0.674431 5.84385 1.16537 6.81297 2.05975C6.39677 2.49722 5.98056 2.99302 5.58502 3.54289C4.94816 3.60813 4.31657 3.71735 3.69479 3.86978C3.62908 3.58529 3.57737 3.29776 3.53985 3.00821C3.4001 1.872 3.57266 0.989773 3.97428 0.755241C4.06299 0.701773 4.17904 0.677469 4.31575 0.677469V0.0151899C4.06664 0.0151899 3.84 0.0686583 3.64436 0.181063C2.80891 0.662887 2.62177 2.16365 3.05256 4.04841C1.20365 4.61955 0 5.53155 0 6.49459C0 7.46067 1.20972 8.37631 3.06471 8.9432C2.63636 10.834 2.82653 12.3384 3.66502 12.8197C3.85823 12.9327 4.08426 12.9861 4.33337 12.9861C5.1512 12.9861 6.22117 12.4035 7.3033 11.393C8.38482 12.3974 9.45479 12.974 10.2726 12.974C10.5072 12.9789 10.7389 12.9215 10.944 12.8075C11.7795 12.3263 11.9666 10.8255 11.5358 8.94077C13.3786 8.37327 14.5823 7.45763 14.5823 6.49459ZM10.7119 4.512C10.5965 4.90928 10.4626 5.301 10.3109 5.68588C10.0625 5.20269 9.78973 4.73242 9.49368 4.27687C9.91596 4.33945 10.323 4.41661 10.7125 4.512H10.7119ZM9.3509 7.67758C9.12835 8.06611 8.88935 8.44499 8.63454 8.81317C7.74274 8.89178 6.8458 8.89279 5.95383 8.81621C5.4422 8.08538 4.99476 7.31166 4.61651 6.5037C4.99418 5.69384 5.43972 4.9174 5.94836 4.18269C6.83994 4.10392 7.73667 4.10271 8.62846 4.17904C8.87515 4.53266 9.11636 4.91059 9.34786 5.30917C9.57388 5.69803 9.77925 6.09297 9.96639 6.49155C9.77717 6.89497 9.57184 7.29063 9.3509 7.67758ZM10.3109 7.29115C10.4713 7.68912 10.6086 8.0877 10.721 8.47414C10.3322 8.56953 9.92143 8.64973 9.49672 8.71171C9.79155 8.25201 10.0633 7.7779 10.3109 7.29115ZM7.29722 10.4628C7.02077 10.1772 6.74431 9.85945 6.47089 9.5113C6.73823 9.52345 7.01165 9.53257 7.28811 9.53257C7.5676 9.53257 7.84406 9.52649 8.11444 9.5113C7.8471 9.85945 7.57064 10.1772 7.29722 10.4628ZM5.08557 8.71171C4.6759 8.65235 4.26919 8.57408 3.86674 8.47717C3.97671 8.09378 4.11342 7.69824 4.26775 7.3033C4.38988 7.54026 4.51808 7.77844 4.65783 8.01662C4.79757 8.25419 4.93975 8.48629 5.08557 8.71171ZM7.28203 2.52638C7.55849 2.81195 7.83494 3.12972 8.10836 3.47788C7.84102 3.46573 7.5676 3.45661 7.29115 3.45661C7.01165 3.45661 6.7352 3.46269 6.46482 3.47788C6.73216 3.12972 7.00861 2.81195 7.28203 2.52638ZM5.08254 4.27747C4.78777 4.73617 4.51604 5.20926 4.26836 5.69499C4.11234 5.30763 3.97546 4.91282 3.85823 4.512C4.24709 4.41965 4.65783 4.33945 5.08254 4.27747ZM2.39271 7.99839C1.34036 7.54998 0.659849 6.96122 0.659849 6.49459C0.659849 6.02796 1.34036 5.43616 2.39271 4.99079C2.6479 4.88082 2.9274 4.78238 3.216 4.69064C3.38552 5.27271 3.60851 5.8791 3.88436 6.50067C3.62392 7.08528 3.40366 7.68698 3.22512 8.30158C2.94286 8.21418 2.66506 8.113 2.39271 7.99839ZM3.9919 12.2455C3.58785 12.0146 3.41226 11.1312 3.54897 9.99616C3.58178 9.71667 3.63524 9.42198 3.70086 9.12183C4.28294 9.26462 4.91909 9.37459 5.58806 9.44629C5.9667 9.96863 6.37977 10.4651 6.82451 10.9325C5.8554 11.8329 4.94583 12.3263 4.3273 12.3263C4.2106 12.3276 4.0954 12.3 3.9919 12.2461V12.2455ZM11.0424 9.98097C11.1822 11.1166 11.0096 11.9994 10.608 12.2339C10.5193 12.2874 10.4033 12.3111 10.2665 12.3111C9.65105 12.3111 8.73844 11.8208 7.76932 10.9258C8.21222 10.4604 8.62251 9.96505 8.99727 9.44325C9.63414 9.37801 10.2657 9.26879 10.8875 9.11636C10.9562 9.41652 11.009 9.70452 11.0424 9.98097ZM12.1865 7.99839C11.9314 8.10836 11.6519 8.20679 11.3633 8.29854C11.1816 7.68081 10.9583 7.07608 10.6949 6.48851C10.9683 5.87059 11.1877 5.26725 11.3541 4.6876C11.6373 4.77529 11.9161 4.87646 12.1896 4.99079C13.2419 5.4392 13.9224 6.02796 13.9224 6.49459C13.9194 6.96122 13.2389 7.55302 12.1865 7.99839Z" fill="#F0F0F0"/>
<path d="M7.28809 7.85317C7.64841 7.85317 7.99397 7.71003 8.24875 7.45525C8.50354 7.20046 8.64667 6.8549 8.64667 6.49459C8.64667 6.13427 8.50354 5.78871 8.24875 5.53392C7.99397 5.27914 7.64841 5.136 7.28809 5.136C6.92777 5.136 6.58221 5.27914 6.32742 5.53392C6.07264 5.78871 5.9295 6.13427 5.9295 6.49459C5.9295 6.8549 6.07264 7.20046 6.32742 7.45525C6.58221 7.71003 6.92777 7.85317 7.28809 7.85317Z" fill="#F0F0F0"/>
</svg>
