<svg width="482" height="482" viewBox="0 0 482 482" fill="none" xmlns="http://www.w3.org/2000/svg">
<path d="M114.129 300.097L46.3543 283.154C46.3543 283.154 46.3543 232.323 63.2979 181.492C80.2415 130.661 198.846 130.661 198.846 130.661L114.129 300.097ZM181.903 367.871L198.846 435.646C198.846 435.646 249.677 435.646 300.508 418.702C351.339 401.759 351.339 283.154 351.339 283.154L181.903 367.871ZM114.129 300.097L181.903 367.871C181.903 367.871 351.339 300.097 402.169 215.379C453 130.661 453 29 453 29C453 29 351.339 29 266.621 79.8307C181.903 130.661 114.129 300.097 114.129 300.097Z" stroke="#F0F0F0" stroke-opacity="0.03" stroke-width="57" stroke-linecap="round" stroke-linejoin="round"/>
<path d="M29.4108 452.589L97.1851 418.702L63.2979 384.814L29.4108 452.589Z" stroke="#F0F0F0" stroke-opacity="0.03" stroke-width="57" stroke-linecap="round" stroke-linejoin="round"/>
<path d="M317.451 181.492C326.809 181.492 334.395 173.906 334.395 164.548C334.395 155.191 326.809 147.605 317.451 147.605C308.094 147.605 300.508 155.191 300.508 164.548C300.508 173.906 308.094 181.492 317.451 181.492Z" stroke="#F0F0F0" stroke-opacity="0.03" stroke-width="57" stroke-linecap="round" stroke-linejoin="round"/>
</svg>
